Sen-Bold.ufo
<glyph name="at" format="1">
  <advance width="784"/>
  <unicode hex="0040"/>
  <outline>
    <contour>
      <point x="188" y="612"/>
      <point x="30" y="456"/>
      <point x="30" y="243" type="curve" smooth="yes"/>
      <point x="30" y="30"/>
      <point x="188" y="-107"/>
      <point x="392" y="-107" type="curve" smooth="yes"/>
      <point x="469" y="-107"/>
      <point x="536" y="-94"/>
      <point x="604" y="-60" type="curve"/>
      <point x="558" y="27" type="line"/>
      <point x="510" y="5"/>
      <point x="466" y="-2"/>
      <point x="392" y="-2" type="curve" smooth="yes"/>
      <point x="252" y="-2"/>
      <point x="143" y="77"/>
      <point x="143" y="243" type="curve" smooth="yes"/>
      <point x="143" y="410"/>
      <point x="256" y="506"/>
      <point x="392" y="506" type="curve" smooth="yes"/>
      <point x="529" y="506"/>
      <point x="641" y="445"/>
      <point x="641" y="278" type="curve" smooth="yes"/>
      <point x="641" y="189"/>
      <point x="598" y="170"/>
      <point x="572" y="170" type="curve" smooth="yes"/>
      <point x="536" y="170"/>
      <point x="523" y="199"/>
      <point x="537" y="254" type="curve" smooth="yes"/>
      <point x="580" y="427" type="line"/>
      <point x="476" y="427" type="line"/>
      <point x="469" y="398" type="line"/>
      <point x="454" y="418"/>
      <point x="419" y="440"/>
      <point x="373" y="440" type="curve" smooth="yes"/>
      <point x="285" y="440"/>
      <point x="192" y="368"/>
      <point x="181" y="248" type="curve" smooth="yes"/>
      <point x="170" y="133"/>
      <point x="230" y="71"/>
      <point x="325" y="71" type="curve" smooth="yes"/>
      <point x="372" y="71"/>
      <point x="415" y="85"/>
      <point x="451" y="124" type="curve"/>
      <point x="464" y="100"/>
      <point x="506" y="71"/>
      <point x="563" y="71" type="curve" smooth="yes"/>
      <point x="680" y="71"/>
      <point x="754" y="159"/>
      <point x="754" y="278" type="curve" smooth="yes"/>
      <point x="754" y="483"/>
      <point x="596" y="612"/>
      <point x="392" y="612" type="curve" smooth="yes"/>
    </contour>
    <contour>
      <point x="410" y="330"/>
      <point x="434" y="324"/>
      <point x="450" y="314" type="curve"/>
      <point x="438" y="262" type="line" smooth="yes"/>
      <point x="421" y="187"/>
      <point x="390" y="170"/>
      <point x="349" y="170" type="curve" smooth="yes"/>
      <point x="315" y="170"/>
      <point x="287" y="198"/>
      <point x="298" y="248" type="curve" smooth="yes"/>
      <point x="311" y="307"/>
      <point x="350" y="330"/>
      <point x="388" y="330" type="curve" smooth="yes"/>
    </contour>
  </outline>
</glyph>
<glyph name="B" format="1">
  <advance width="686"/>
  <unicode hex="0042"/>
  <outline>
    <contour>
      <point x="70" y="670" type="line"/>
      <point x="70" y="15" type="line"/>
      <point x="133" y="1"/>
      <point x="272" y="-15"/>
      <point x="365" y="-15" type="curve" smooth="yes"/>
      <point x="527" y="-15"/>
      <point x="646" y="77"/>
      <point x="646" y="189" type="curve" smooth="yes"/>
      <point x="646" y="286"/>
      <point x="588" y="322"/>
      <point x="526" y="344" type="curve"/>
      <point x="582" y="370"/>
      <point x="614" y="413"/>
      <point x="614" y="481" type="curve" smooth="yes"/>
      <point x="614" y="597"/>
      <point x="501" y="670"/>
      <point x="389" y="670" type="curve" smooth="yes"/>
    </contour>
    <contour>
      <point x="396" y="505"/>
      <point x="432" y="484"/>
      <point x="432" y="448" type="curve" smooth="yes"/>
      <point x="432" y="412"/>
      <point x="396" y="394"/>
      <point x="352" y="394" type="curve" smooth="yes"/>
      <point x="227" y="394" type="line"/>
      <point x="227" y="269" type="line"/>
      <point x="345" y="269" type="line" smooth="yes"/>
      <point x="399" y="269"/>
      <point x="448" y="258"/>
      <point x="448" y="218" type="curve" smooth="yes"/>
      <point x="448" y="174"/>
      <point x="406" y="150"/>
      <point x="352" y="150" type="curve" smooth="yes"/>
      <point x="331" y="150"/>
      <point x="285" y="153"/>
      <point x="257" y="162" type="curve"/>
      <point x="257" y="505" type="line"/>
      <point x="352" y="505" type="line" smooth="yes"/>
    </contour>
  </outline>
</glyph>
<glyph name="D" format="1">
  <advance width="739"/>
  <unicode hex="0044"/>
  <outline>
    <contour>
      <point x="70" y="670" type="line"/>
      <point x="70" y="13" type="line"/>
      <point x="151" y="-4"/>
      <point x="266" y="-15"/>
      <point x="358" y="-15" type="curve" smooth="yes"/>
      <point x="565" y="-15"/>
      <point x="699" y="137"/>
      <point x="699" y="335" type="curve" smooth="yes"/>
      <point x="699" y="551"/>
      <point x="526" y="670"/>
      <point x="343" y="670" type="curve" smooth="yes"/>
    </contour>
    <contour>
      <point x="443" y="495"/>
      <point x="507" y="429"/>
      <point x="507" y="325" type="curve" smooth="yes"/>
      <point x="507" y="226"/>
      <point x="464" y="160"/>
      <point x="349" y="160" type="curve" smooth="yes"/>
      <point x="321" y="160"/>
      <point x="287" y="163"/>
      <point x="257" y="172" type="curve"/>
      <point x="257" y="495" type="line"/>
      <point x="333" y="495" type="line" smooth="yes"/>
    </contour>
    <contour>
      <point x="370" y="335" type="move" name="center"/>
    </contour>
    <contour>
      <point x="310" y="670" type="move" name="top"/>
    </contour>
  </outline>
</glyph>
<glyph name="E" format="1">
  <advance width="618"/>
  <unicode hex="0045"/>
  <outline>
    <contour>
      <point x="70" y="670" type="line"/>
      <point x="70" y="0" type="line"/>
      <point x="558" y="0" type="line"/>
      <point x="558" y="160" type="line"/>
      <point x="257" y="160" type="line"/>
      <point x="257" y="515" type="line"/>
      <point x="558" y="515" type="line"/>
      <point x="558" y="670" type="line"/>
    </contour>
    <contour>
      <point x="177" y="409" type="line"/>
      <point x="177" y="269" type="line"/>
      <point x="523" y="269" type="line"/>
      <point x="523" y="409" type="line"/>
    </contour>
    <contour>
      <point x="565" y="10" type="move" name="ogonek"/>
    </contour>
    <contour>
      <point x="314" y="0" type="move" name="bottom"/>
    </contour>
    <contour>
      <point x="314" y="670" type="move" name="top"/>
    </contour>
  </outline>
</glyph>
<glyph name="F" format="1">
  <advance width="595"/>
  <unicode hex="0046"/>
  <outline>
    <contour>
      <point x="70" y="670" type="line"/>
      <point x="70" y="0" type="line"/>
      <point x="257" y="0" type="line"/>
      <point x="257" y="505" type="line"/>
      <point x="545" y="505" type="line"/>
      <point x="545" y="670" type="line"/>
    </contour>
    <contour>
      <point x="147" y="391" type="line"/>
      <point x="147" y="226" type="line"/>
      <point x="495" y="226" type="line"/>
      <point x="495" y="391" type="line"/>
    </contour>
  </outline>
</glyph>
<glyph name="H" format="1">
  <advance width="754"/>
  <unicode hex="0048"/>
  <outline>
    <contour>
      <point x="497" y="670" type="line"/>
      <point x="497" y="0" type="line"/>
      <point x="684" y="0" type="line"/>
      <point x="684" y="670" type="line"/>
    </contour>
    <contour>
      <point x="70" y="670" type="line"/>
      <point x="70" y="0" type="line"/>
      <point x="257" y="0" type="line"/>
      <point x="257" y="670" type="line"/>
    </contour>
    <contour>
      <point x="237" y="405" type="line"/>
      <point x="237" y="240" type="line"/>
      <point x="525" y="240" type="line"/>
      <point x="525" y="405" type="line"/>
    </contour>
  </outline>
</glyph>
<glyph name="I" format="1">
  <advance width="533"/>
  <unicode hex="0049"/>
  <outline>
    <contour>
      <point x="173" y="670" type="line"/>
      <point x="173" y="0" type="line"/>
      <point x="360" y="0" type="line"/>
      <point x="360" y="670" type="line"/>
    </contour>
    <contour>
      <point x="60" y="165" type="line"/>
      <point x="60" y="0" type="line"/>
      <point x="473" y="0" type="line"/>
      <point x="473" y="165" type="line"/>
    </contour>
    <contour>
      <point x="60" y="670" type="line"/>
      <point x="60" y="505" type="line"/>
      <point x="473" y="505" type="line"/>
      <point x="473" y="670" type="line"/>
    </contour>
    <contour>
      <point x="349" y="10" type="move" name="ogonek"/>
    </contour>
    <contour>
      <point x="267" y="670" type="move" name="top"/>
    </contour>
  </outline>
</glyph>
<glyph name="K" format="1">
  <advance width="737"/>
  <unicode hex="004B"/>
  <outline>
    <contour>
      <point x="462" y="670" type="line"/>
      <point x="119" y="258" type="line"/>
      <point x="238" y="161" type="line"/>
      <point x="687" y="670" type="line"/>
    </contour>
    <contour>
      <point x="70" y="670" type="line"/>
      <point x="70" y="0" type="line"/>
      <point x="257" y="0" type="line"/>
      <point x="257" y="670" type="line"/>
    </contour>
    <contour>
      <point x="288" y="299" type="line"/>
      <point x="479" y="0" type="line"/>
      <point x="717" y="0" type="line"/>
      <point x="436" y="408" type="line"/>
    </contour>
    <contour>
      <point x="369" y="670" type="move" name="top"/>
    </contour>
    <contour>
      <point x="369" y="0" type="move" name="bottom"/>
    </contour>
  </outline>
</glyph>
<glyph name="L" format="1">
  <advance width="598"/>
  <unicode hex="004C"/>
  <outline>
    <contour>
      <point x="70" y="670" type="line"/>
      <point x="70" y="0" type="line"/>
      <point x="558" y="0" type="line"/>
      <point x="558" y="165" type="line"/>
      <point x="257" y="165" type="line"/>
      <point x="257" y="670" type="line"/>
    </contour>
    <contour>
      <point x="228" y="670" type="move" name="top"/>
    </contour>
    <contour>
      <point x="299" y="0" type="move" name="bottom"/>
    </contour>
    <contour>
      <point x="578" y="670" type="move" name="topright"/>
    </contour>
  </outline>
</glyph>
<glyph name="M" format="1">
  <advance width="844"/>
  <unicode hex="004D"/>
  <outline>
    <contour>
      <point x="688" y="680" type="line"/>
      <point x="422" y="400" type="line"/>
      <point x="156" y="680" type="line"/>
      <point x="70" y="680" type="line"/>
      <point x="70" y="0" type="line"/>
      <point x="257" y="0" type="line"/>
      <point x="257" y="350" type="line"/>
      <point x="394" y="200" type="line"/>
      <point x="450" y="200" type="line"/>
      <point x="587" y="350" type="line"/>
      <point x="587" y="0" type="line"/>
      <point x="774" y="0" type="line"/>
      <point x="774" y="680" type="line"/>
    </contour>
  </outline>
</glyph>
<glyph name="N" format="1">
  <advance width="752"/>
  <unicode hex="004E"/>
  <outline>
    <contour>
      <point x="495" y="670" type="line"/>
      <point x="495" y="335" type="line"/>
      <point x="136" y="680" type="line"/>
      <point x="70" y="680" type="line"/>
      <point x="70" y="0" type="line"/>
      <point x="257" y="0" type="line"/>
      <point x="257" y="329" type="line"/>
      <point x="616" y="-10" type="line"/>
      <point x="682" y="-10" type="line"/>
      <point x="682" y="670" type="line"/>
    </contour>
    <contour>
      <point x="376" y="670" type="move" name="top"/>
    </contour>
    <contour>
      <point x="376" y="0" type="move" name="bottom"/>
    </contour>
  </outline>
</glyph>
<glyph name="P" format="1">
  <advance width="650"/>
  <unicode hex="0050"/>
  <outline>
    <contour>
      <point x="60" y="670" type="line"/>
      <point x="60" y="0" type="line"/>
      <point x="247" y="0" type="line"/>
      <point x="247" y="495" type="line"/>
      <point x="325" y="495" type="line" smooth="yes"/>
      <point x="384" y="495"/>
      <point x="428" y="472"/>
      <point x="428" y="417" type="curve" smooth="yes"/>
      <point x="428" y="369"/>
      <point x="384" y="326"/>
      <point x="325" y="326" type="curve" smooth="yes"/>
      <point x="286" y="326"/>
      <point x="251" y="337"/>
      <point x="225" y="349" type="curve"/>
      <point x="225" y="211" type="line"/>
      <point x="255" y="190"/>
      <point x="302" y="171"/>
      <point x="367" y="171" type="curve" smooth="yes"/>
      <point x="497" y="171"/>
      <point x="620" y="262"/>
      <point x="620" y="417" type="curve" smooth="yes"/>
      <point x="620" y="575"/>
      <point x="482" y="670"/>
      <point x="347" y="670" type="curve" smooth="yes"/>
    </contour>
  </outline>
</glyph>
<glyph name="R" format="1">
  <advance width="678"/>
  <unicode hex="0052"/>
  <outline>
    <contour>
      <point x="70" y="670" type="line"/>
      <point x="70" y="0" type="line"/>
      <point x="257" y="0" type="line"/>
      <point x="257" y="495" type="line"/>
      <point x="335" y="495" type="line" smooth="yes"/>
      <point x="394" y="495"/>
      <point x="438" y="482"/>
      <point x="438" y="427" type="curve" smooth="yes"/>
      <point x="438" y="379"/>
      <point x="394" y="356"/>
      <point x="335" y="356" type="curve" smooth="yes"/>
      <point x="296" y="356"/>
      <point x="261" y="367"/>
      <point x="235" y="379" type="curve"/>
      <point x="235" y="284" type="line"/>
      <point x="265" y="278"/>
      <point x="372" y="237"/>
      <point x="407" y="237" type="curve" smooth="yes"/>
      <point x="530" y="237"/>
      <point x="630" y="312"/>
      <point x="630" y="437" type="curve" smooth="yes"/>
      <point x="630" y="595"/>
      <point x="492" y="670"/>
      <point x="357" y="670" type="curve" smooth="yes"/>
    </contour>
    <contour>
      <point x="245" y="284" type="line"/>
      <point x="440" y="0" type="line"/>
      <point x="668" y="0" type="line"/>
      <point x="413" y="333" type="line"/>
    </contour>
    <contour>
      <point x="299" y="670" type="move" name="top"/>
    </contour>
    <contour>
      <point x="339" y="0" type="move" name="bottom"/>
    </contour>
  </outline>
</glyph>
<glyph name="U" format="1">
  <advance width="726"/>
  <unicode hex="0055"/>
  <outline>
    <contour>
      <point x="479" y="672" type="line"/>
      <point x="479" y="278" type="line" smooth="yes"/>
      <point x="479" y="209"/>
      <point x="443" y="161"/>
      <point x="363" y="160" type="curve" smooth="yes"/>
      <point x="283" y="159"/>
      <point x="247" y="209"/>
      <point x="247" y="278" type="curve" smooth="yes"/>
      <point x="247" y="672" type="line"/>
      <point x="60" y="672" type="line"/>
      <point x="60" y="265" type="line" smooth="yes"/>
      <point x="60" y="90"/>
      <point x="196" y="-15"/>
      <point x="363" y="-15" type="curve" smooth="yes"/>
      <point x="530" y="-15"/>
      <point x="666" y="90"/>
      <point x="666" y="265" type="curve" smooth="yes"/>
      <point x="666" y="672" type="line"/>
    </contour>
    <contour>
      <point x="473" y="10" type="move" name="ogonek"/>
    </contour>
    <contour>
      <point x="363" y="670" type="move" name="top"/>
    </contour>
  </outline>
</glyph>
<glyph name="Z" format="1">
  <advance width="657"/>
  <unicode hex="005A"/>
  <outline>
    <contour>
      <point x="40" y="670" type="line"/>
      <point x="40" y="505" type="line"/>
      <point x="312" y="505" type="line"/>
      <point x="40" y="36" type="line"/>
      <point x="40" y="0" type="line"/>
      <point x="617" y="0" type="line"/>
      <point x="617" y="165" type="line"/>
      <point x="344" y="165" type="line"/>
      <point x="617" y="634" type="line"/>
      <point x="617" y="670" type="line"/>
    </contour>
    <contour>
      <point x="329" y="670" type="move" name="top"/>
    </contour>
  </outline>
</glyph>
<glyph name="b" format="1">
  <advance width="639"/>
  <unicode hex="0062"/>
  <outline>
    <contour>
      <point x="65" y="720" type="line"/>
      <point x="65" y="0" type="line"/>
      <point x="237" y="0" type="line"/>
      <point x="237" y="47" type="line"/>
      <point x="270" y="11"/>
      <point x="326" y="-15"/>
      <point x="379" y="-15" type="curve" smooth="yes"/>
      <point x="503" y="-15"/>
      <point x="609" y="82"/>
      <point x="609" y="254" type="curve" smooth="yes"/>
      <point x="609" y="439"/>
      <point x="503" y="525"/>
      <point x="389" y="525" type="curve" smooth="yes"/>
      <point x="316" y="525"/>
      <point x="262" y="481"/>
      <point x="237" y="425" type="curve"/>
      <point x="237" y="720" type="line"/>
    </contour>
    <contour>
      <point x="393" y="351"/>
      <point x="429" y="309"/>
      <point x="429" y="254" type="curve" smooth="yes"/>
      <point x="429" y="200"/>
      <point x="393" y="153"/>
      <point x="343" y="153" type="curve" smooth="yes"/>
      <point x="305" y="153"/>
      <point x="267" y="171"/>
      <point x="237" y="195" type="curve"/>
      <point x="237" y="244" type="line" smooth="yes"/>
      <point x="237" y="318"/>
      <point x="295" y="351"/>
      <point x="338" y="351" type="curve" smooth="yes"/>
    </contour>
  </outline>
</glyph>
<glyph name="c" format="1">
  <advance width="462"/>
  <unicode hex="0063"/>
  <outline>
    <contour>
      <point x="147" y="525"/>
      <point x="30" y="394"/>
      <point x="30" y="252" type="curve" smooth="yes"/>
      <point x="30" y="110"/>
      <point x="147" y="-15"/>
      <point x="299" y="-15" type="curve" smooth="yes"/>
      <point x="377" y="-15"/>
      <point x="412" y="10"/>
      <point x="447" y="37" type="curve"/>
      <point x="447" y="187" type="line"/>
      <point x="416" y="165"/>
      <point x="379" y="150"/>
      <point x="322" y="150" type="curve" smooth="yes"/>
      <point x="265" y="150"/>
      <point x="215" y="185"/>
      <point x="215" y="252" type="curve" smooth="yes"/>
      <point x="215" y="319"/>
      <point x="275" y="355"/>
      <point x="322" y="355" type="curve" smooth="yes"/>
      <point x="379" y="355"/>
      <point x="416" y="340"/>
      <point x="447" y="318" type="curve"/>
      <point x="447" y="468" type="line"/>
      <point x="412" y="495"/>
      <point x="377" y="525"/>
      <point x="299" y="525" type="curve" smooth="yes"/>
    </contour>
    <contour>
      <point x="295" y="510" type="move" name="top"/>
    </contour>
    <contour>
      <point x="307" y="0" type="move" name="bottom"/>
    </contour>
  </outline>
</glyph>
<glyph name="e" format="1">
  <advance width="568"/>
  <unicode hex="0065"/>
  <outline>
    <contour>
      <point x="157" y="525"/>
      <point x="30" y="399"/>
      <point x="30" y="247" type="curve" smooth="yes"/>
      <point x="30" y="85"/>
      <point x="166" y="-15"/>
      <point x="311" y="-15" type="curve" smooth="yes"/>
      <point x="387" y="-15"/>
      <point x="444" y="10"/>
      <point x="479" y="32" type="curve"/>
      <point x="479" y="179" type="line"/>
      <point x="451" y="163"/>
      <point x="398" y="135"/>
      <point x="321" y="135" type="curve" smooth="yes"/>
      <point x="250" y="135"/>
      <point x="195" y="170"/>
      <point x="195" y="247" type="curve" smooth="yes"/>
      <point x="195" y="330"/>
      <point x="236" y="375"/>
      <point x="291" y="375" type="curve" smooth="yes"/>
      <point x="336" y="375"/>
      <point x="377" y="350"/>
      <point x="385" y="312" type="curve"/>
      <point x="97" y="312" type="line"/>
      <point x="97" y="210" type="line"/>
      <point x="548" y="210" type="line"/>
      <point x="548" y="267" type="line" smooth="yes"/>
      <point x="548" y="424"/>
      <point x="445" y="525"/>
      <point x="301" y="525" type="curve" smooth="yes"/>
    </contour>
    <contour>
      <point x="438" y="10" type="move" name="ogonek"/>
    </contour>
    <contour>
      <point x="276" y="0" type="move" name="bottom"/>
    </contour>
    <contour>
      <point x="306" y="510" type="move" name="top"/>
    </contour>
  </outline>
</glyph>
<glyph name="g" format="1">
  <advance width="639"/>
  <unicode hex="0067"/>
  <outline>
    <contour>
      <point x="136" y="525"/>
      <point x="30" y="428"/>
      <point x="30" y="256" type="curve" smooth="yes"/>
      <point x="30" y="71"/>
      <point x="136" y="-15"/>
      <point x="250" y="-15" type="curve" smooth="yes"/>
      <point x="323" y="-15"/>
      <point x="377" y="29"/>
      <point x="402" y="85" type="curve"/>
      <point x="402" y="14" type="line" smooth="yes"/>
      <point x="402" y="-45"/>
      <point x="341" y="-100"/>
      <point x="258" y="-100" type="curve" smooth="yes"/>
      <point x="175" y="-100"/>
      <point x="122" y="-76"/>
      <point x="59" y="-49" type="curve"/>
      <point x="59" y="-201" type="line"/>
      <point x="127" y="-238"/>
      <point x="189" y="-255"/>
      <point x="274" y="-255" type="curve" smooth="yes"/>
      <point x="431" y="-255"/>
      <point x="574" y="-147"/>
      <point x="574" y="15" type="curve" smooth="yes"/>
      <point x="574" y="510" type="line"/>
      <point x="402" y="510" type="line"/>
      <point x="402" y="463" type="line"/>
      <point x="369" y="499"/>
      <point x="313" y="525"/>
      <point x="260" y="525" type="curve" smooth="yes"/>
    </contour>
    <contour>
      <point x="334" y="357"/>
      <point x="372" y="339"/>
      <point x="402" y="315" type="curve"/>
      <point x="402" y="266" type="line" smooth="yes"/>
      <point x="402" y="192"/>
      <point x="344" y="159"/>
      <point x="301" y="159" type="curve" smooth="yes"/>
      <point x="246" y="159"/>
      <point x="210" y="201"/>
      <point x="210" y="256" type="curve" smooth="yes"/>
      <point x="210" y="310"/>
      <point x="246" y="357"/>
      <point x="296" y="357" type="curve" smooth="yes"/>
    </contour>
    <contour>
      <point x="315" y="510" type="move" name="top"/>
    </contour>
  </outline>
</glyph>
<glyph name="i" format="1">
  <advance width="359"/>
  <unicode hex="0069"/>
  <outline>
    <contour>
      <point x="138" y="783"/>
      <point x="92" y="737"/>
      <point x="92" y="679" type="curve" smooth="yes"/>
      <point x="92" y="622"/>
      <point x="138" y="575"/>
      <point x="196" y="575" type="curve" smooth="yes"/>
      <point x="253" y="575"/>
      <point x="300" y="622"/>
      <point x="300" y="679" type="curve" smooth="yes"/>
      <point x="300" y="737"/>
      <point x="253" y="783"/>
      <point x="196" y="783" type="curve" smooth="yes"/>
    </contour>
    <component base="idotless" xOffset="10"/>
  </outline>
</glyph>
<glyph name="j" format="1">
  <advance width="373"/>
  <unicode hex="006A"/>
  <outline>
    <contour>
      <point x="123" y="510" type="line"/>
      <point x="123" y="11" type="line" smooth="yes"/>
      <point x="123" y="-48"/>
      <point x="83" y="-85"/>
      <point x="31" y="-108" type="curve"/>
      <point x="106" y="-255" type="line"/>
      <point x="231" y="-215"/>
      <point x="295" y="-130"/>
      <point x="295" y="9" type="curve" smooth="yes"/>
      <point x="295" y="510" type="line"/>
    </contour>
    <contour>
      <point x="30" y="510" type="line"/>
      <point x="30" y="370" type="line"/>
      <point x="274" y="370" type="line"/>
      <point x="274" y="510" type="line"/>
    </contour>
    <contour>
      <point x="146" y="783"/>
      <point x="100" y="737"/>
      <point x="100" y="679" type="curve" smooth="yes"/>
      <point x="100" y="622"/>
      <point x="146" y="575"/>
      <point x="204" y="575" type="curve" smooth="yes"/>
      <point x="261" y="575"/>
      <point x="308" y="622"/>
      <point x="308" y="679" type="curve" smooth="yes"/>
      <point x="308" y="737"/>
      <point x="261" y="783"/>
      <point x="204" y="783" type="curve" smooth="yes"/>
    </contour>
  </outline>
</glyph>
<glyph name="k" format="1">
  <advance width="630"/>
  <unicode hex="006B"/>
  <outline>
    <contour>
      <point x="400" y="510" type="line"/>
      <point x="213" y="275" type="line"/>
      <point x="213" y="88" type="line"/>
      <point x="608" y="510" type="line"/>
    </contour>
    <contour>
      <point x="65" y="720" type="line"/>
      <point x="65" y="0" type="line"/>
      <point x="237" y="0" type="line"/>
      <point x="237" y="720" type="line"/>
    </contour>
    <contour>
      <point x="276" y="214" type="line"/>
      <point x="398" y="0" type="line"/>
      <point x="625" y="0" type="line"/>
      <point x="372" y="331" type="line"/>
    </contour>
    <contour>
      <point x="323" y="0" type="move" name="bottom"/>
    </contour>
  </outline>
</glyph>
<glyph name="l" format="1">
  <advance width="302"/>
  <unicode hex="006C"/>
  <outline>
    <contour>
      <point x="65" y="720" type="line"/>
      <point x="65" y="0" type="line"/>
      <point x="237" y="0" type="line"/>
      <point x="237" y="720" type="line"/>
    </contour>
    <contour>
      <point x="202" y="720" type="move" name="top"/>
    </contour>
    <contour>
      <point x="151" y="0" type="move" name="bottom"/>
    </contour>
    <contour>
      <point x="267" y="510" type="move" name="topright"/>
    </contour>
  </outline>
</glyph>
<glyph name="m" format="1">
  <advance width="909"/>
  <unicode hex="006D"/>
  <outline>
    <contour>
      <point x="604" y="525"/>
      <point x="548" y="482"/>
      <point x="516" y="426" type="curve"/>
      <point x="541" y="308" type="line"/>
      <point x="559" y="335"/>
      <point x="580" y="357"/>
      <point x="611" y="357" type="curve" smooth="yes"/>
      <point x="646" y="357"/>
      <point x="676" y="339"/>
      <point x="676" y="288" type="curve" smooth="yes"/>
      <point x="677" y="0" type="line"/>
      <point x="849" y="0" type="line"/>
      <point x="849" y="315" type="line" smooth="yes"/>
      <point x="849" y="453"/>
      <point x="776" y="525"/>
      <point x="672" y="525" type="curve" smooth="yes"/>
    </contour>
    <contour>
      <point x="65" y="510" type="line"/>
      <point x="65" y="0" type="line"/>
      <point x="237" y="0" type="line"/>
      <point x="237" y="510" type="line"/>
    </contour>
    <contour>
      <point x="298" y="525"/>
      <point x="269" y="488"/>
      <point x="237" y="444" type="curve"/>
      <point x="237" y="308" type="line"/>
      <point x="255" y="335"/>
      <point x="274" y="357"/>
      <point x="305" y="357" type="curve" smooth="yes"/>
      <point x="340" y="357"/>
      <point x="370" y="339"/>
      <point x="370" y="288" type="curve" smooth="yes"/>
      <point x="371" y="0" type="line"/>
      <point x="543" y="0" type="line"/>
      <point x="543" y="328" type="line"/>
      <point x="532" y="399" type="line"/>
      <point x="508" y="482"/>
      <point x="446" y="525"/>
      <point x="366" y="525" type="curve" smooth="yes"/>
    </contour>
  </outline>
</glyph>
<glyph name="n" format="1">
  <advance width="618"/>
  <unicode hex="006E"/>
  <outline>
    <contour>
      <point x="313" y="525"/>
      <point x="269" y="488"/>
      <point x="237" y="444" type="curve"/>
      <point x="237" y="308" type="line"/>
      <point x="255" y="335"/>
      <point x="280" y="357"/>
      <point x="317" y="357" type="curve" smooth="yes"/>
      <point x="352" y="357"/>
      <point x="385" y="339"/>
      <point x="385" y="288" type="curve" smooth="yes"/>
      <point x="386" y="0" type="line"/>
      <point x="558" y="0" type="line"/>
      <point x="558" y="315" type="line" smooth="yes"/>
      <point x="558" y="453"/>
      <point x="485" y="525"/>
      <point x="381" y="525" type="curve" smooth="yes"/>
    </contour>
    <contour>
      <point x="65" y="510" type="line"/>
      <point x="65" y="0" type="line"/>
      <point x="237" y="0" type="line"/>
      <point x="237" y="510" type="line"/>
    </contour>
    <contour>
      <point x="328" y="513" type="move" name="top"/>
    </contour>
    <contour>
      <point x="318" y="0" type="move" name="bottom"/>
    </contour>
  </outline>
</glyph>
<glyph name="o" format="1">
  <advance width="620"/>
  <unicode hex="006F"/>
  <outline>
    <contour>
      <point x="168" y="525"/>
      <point x="30" y="412"/>
      <point x="30" y="255" type="curve" smooth="yes"/>
      <point x="30" y="98"/>
      <point x="168" y="-15"/>
      <point x="310" y="-15" type="curve" smooth="yes"/>
      <point x="452" y="-15"/>
      <point x="590" y="98"/>
      <point x="590" y="255" type="curve" smooth="yes"/>
      <point x="590" y="412"/>
      <point x="452" y="525"/>
      <point x="310" y="525" type="curve" smooth="yes"/>
    </contour>
    <contour>
      <point x="347" y="360"/>
      <point x="405" y="342"/>
      <point x="405" y="255" type="curve" smooth="yes"/>
      <point x="405" y="168"/>
      <point x="347" y="150"/>
      <point x="310" y="150" type="curve" smooth="yes"/>
      <point x="273" y="150"/>
      <point x="215" y="168"/>
      <point x="215" y="255" type="curve" smooth="yes"/>
      <point x="215" y="342"/>
      <point x="273" y="360"/>
      <point x="310" y="360" type="curve" smooth="yes"/>
    </contour>
    <contour>
      <point x="310" y="510" type="move" name="top"/>
    </contour>
  </outline>
</glyph>
<glyph name="q" format="1">
  <advance width="639"/>
  <unicode hex="0071"/>
  <outline>
    <contour>
      <point x="136" y="525"/>
      <point x="30" y="428"/>
      <point x="30" y="256" type="curve" smooth="yes"/>
      <point x="30" y="71"/>
      <point x="136" y="-15"/>
      <point x="250" y="-15" type="curve" smooth="yes"/>
      <point x="323" y="-15"/>
      <point x="377" y="29"/>
      <point x="402" y="85" type="curve"/>
      <point x="402" y="-240" type="line"/>
      <point x="574" y="-240" type="line"/>
      <point x="574" y="510" type="line"/>
      <point x="402" y="510" type="line"/>
      <point x="402" y="463" type="line"/>
      <point x="369" y="499"/>
      <point x="313" y="525"/>
      <point x="260" y="525" type="curve" smooth="yes"/>
    </contour>
    <contour>
      <point x="334" y="357"/>
      <point x="372" y="339"/>
      <point x="402" y="315" type="curve"/>
      <point x="402" y="266" type="line" smooth="yes"/>
      <point x="402" y="192"/>
      <point x="344" y="159"/>
      <point x="301" y="159" type="curve" smooth="yes"/>
      <point x="246" y="159"/>
      <point x="210" y="201"/>
      <point x="210" y="256" type="curve" smooth="yes"/>
      <point x="210" y="310"/>
      <point x="246" y="357"/>
      <point x="296" y="357" type="curve" smooth="yes"/>
    </contour>
  </outline>
</glyph>
<glyph name="r" format="1">
  <advance width="441"/>
  <unicode hex="0072"/>
  <outline>
    <contour>
      <point x="65" y="510" type="line"/>
      <point x="65" y="0" type="line"/>
      <point x="237" y="0" type="line"/>
      <point x="237" y="510" type="line"/>
    </contour>
    <contour>
      <point x="426" y="505" type="line"/>
      <point x="409" y="514"/>
      <point x="390" y="520"/>
      <point x="368" y="520" type="curve" smooth="yes"/>
      <point x="304" y="520"/>
      <point x="269" y="473"/>
      <point x="237" y="419" type="curve"/>
      <point x="237" y="262" type="line"/>
      <point x="260" y="307"/>
      <point x="296" y="338"/>
      <point x="343" y="338" type="curve" smooth="yes"/>
      <point x="378" y="338"/>
      <point x="401" y="329"/>
      <point x="426" y="314" type="curve"/>
    </contour>
    <contour>
      <point x="221" y="510" type="move" name="top"/>
    </contour>
    <contour>
      <point x="221" y="0" type="move" name="bottom"/>
    </contour>
  </outline>
</glyph>
<glyph name="s" format="1">
  <advance width="446"/>
  <unicode hex="0073"/>
  <outline>
    <contour>
      <point x="122" y="525"/>
      <point x="30" y="459"/>
      <point x="30" y="354" type="curve" smooth="yes"/>
      <point x="30" y="283"/>
      <point x="63" y="234"/>
      <point x="138" y="211" type="curve" smooth="yes"/>
      <point x="189" y="195" type="line" smooth="yes"/>
      <point x="229" y="182"/>
      <point x="251" y="175"/>
      <point x="251" y="156" type="curve" smooth="yes"/>
      <point x="251" y="132"/>
      <point x="233" y="124"/>
      <point x="195" y="124" type="curve" smooth="yes"/>
      <point x="147" y="124"/>
      <point x="80" y="146"/>
      <point x="32" y="176" type="curve"/>
      <point x="32" y="42" type="line"/>
      <point x="78" y="10"/>
      <point x="146" y="-15"/>
      <point x="222" y="-15" type="curve" smooth="yes"/>
      <point x="331" y="-15"/>
      <point x="431" y="55"/>
      <point x="431" y="155" type="curve" smooth="yes"/>
      <point x="431" y="228"/>
      <point x="388" y="275"/>
      <point x="298" y="298" type="curve" smooth="yes"/>
      <point x="267" y="306" type="line" smooth="yes"/>
      <point x="224" y="317"/>
      <point x="213" y="323"/>
      <point x="213" y="342" type="curve" smooth="yes"/>
      <point x="213" y="369"/>
      <point x="242" y="381"/>
      <point x="274" y="381" type="curve" smooth="yes"/>
      <point x="324" y="381"/>
      <point x="369" y="357"/>
      <point x="404" y="336" type="curve"/>
      <point x="404" y="471" type="line"/>
      <point x="369" y="504"/>
      <point x="309" y="525"/>
      <point x="243" y="525" type="curve" smooth="yes"/>
    </contour>
    <contour>
      <point x="223" y="510" type="move" name="top"/>
    </contour>
    <contour>
      <point x="223" y="0" type="move" name="bottom"/>
    </contour>
  </outline>
</glyph>
<glyph name="t" format="1">
  <advance width="473"/>
  <unicode hex="0074"/>
  <outline>
    <contour>
      <point x="201" y="660" type="line"/>
      <point x="171" y="553"/>
      <point x="100" y="497"/>
      <point x="35" y="480" type="curve"/>
      <point x="35" y="375" type="line"/>
      <point x="121" y="375" type="line"/>
      <point x="121" y="169" type="line" smooth="yes"/>
      <point x="121" y="53"/>
      <point x="203" y="-15"/>
      <point x="298" y="-15" type="curve" smooth="yes"/>
      <point x="364" y="-15"/>
      <point x="411" y="11"/>
      <point x="433" y="40" type="curve"/>
      <point x="433" y="174" type="line"/>
      <point x="408" y="159"/>
      <point x="384" y="152"/>
      <point x="352" y="152" type="curve" smooth="yes"/>
      <point x="315" y="152"/>
      <point x="293" y="183"/>
      <point x="293" y="232" type="curve" smooth="yes"/>
      <point x="293" y="375" type="line"/>
      <point x="427" y="375" type="line"/>
      <point x="427" y="510" type="line"/>
      <point x="293" y="510" type="line"/>
      <point x="293" y="660" type="line"/>
    </contour>
    <contour>
      <point x="239" y="255" type="move" name="center"/>
    </contour>
    <contour>
      <point x="305" y="0" type="move" name="bottom"/>
    </contour>
    <contour>
      <point x="443" y="510" type="move" name="topright"/>
    </contour>
  </outline>
</glyph>
<glyph name="u" format="1">
  <advance width="608"/>
  <unicode hex="0075"/>
  <outline>
    <contour>
      <point x="376" y="510" type="line"/>
      <point x="375" y="250" type="line" smooth="yes"/>
      <point x="375" y="180"/>
      <point x="355" y="150"/>
      <point x="304" y="150" type="curve" smooth="yes"/>
      <point x="253" y="150"/>
      <point x="233" y="180"/>
      <point x="233" y="250" type="curve" smooth="yes"/>
      <point x="232" y="510" type="line"/>
      <point x="60" y="510" type="line"/>
      <point x="60" y="204" type="line" smooth="yes"/>
      <point x="60" y="66"/>
      <point x="162" y="-15"/>
      <point x="304" y="-15" type="curve" smooth="yes"/>
      <point x="446" y="-15"/>
      <point x="548" y="66"/>
      <point x="548" y="204" type="curve" smooth="yes"/>
      <point x="548" y="510" type="line"/>
    </contour>
    <contour>
      <point x="406" y="10" type="move" name="ogonek"/>
    </contour>
    <contour>
      <point x="332" y="10" type="move" name="bottom"/>
    </contour>
    <contour>
      <point x="312" y="510" type="move" name="top"/>
    </contour>
  </outline>
</glyph>
<glyph name="z" format="1">
  <advance width="554"/>
  <unicode hex="007A"/>
  <outline>
    <contour>
      <point x="55" y="510" type="line"/>
      <point x="55" y="370" type="line"/>
      <point x="255" y="370" type="line"/>
      <point x="45" y="36" type="line"/>
      <point x="45" y="0" type="line"/>
      <point x="514" y="0" type="line"/>
      <point x="514" y="140" type="line"/>
      <point x="283" y="140" type="line"/>
      <point x="504" y="474" type="line"/>
      <point x="504" y="510" type="line"/>
    </contour>
    <contour>
      <point x="280" y="510" type="move" name="top"/>
    </contour>
  </outline>
</glyph>
<glyph name="sterling" format="1">
  <advance width="538"/>
  <unicode hex="00A3"/>
  <outline>
    <contour>
      <point x="251" y="680"/>
      <point x="130" y="599"/>
      <point x="130" y="439" type="curve"/>
      <point x="130" y="234" type="line"/>
      <point x="130" y="183"/>
      <point x="92" y="149"/>
      <point x="50" y="135" type="curve"/>
      <point x="50" y="0" type="line"/>
      <point x="490" y="0" type="line"/>
      <point x="490" y="165" type="line"/>
      <point x="270" y="165" type="line"/>
      <point x="298" y="183"/>
      <point x="317" y="213"/>
      <point x="317" y="253" type="curve" smooth="yes"/>
      <point x="317" y="413" type="line" smooth="yes"/>
      <point x="317" y="471"/>
      <point x="362" y="504"/>
      <point x="401" y="505" type="curve" smooth="yes"/>
      <point x="439" y="506"/>
      <point x="474" y="491"/>
      <point x="498" y="473" type="curve"/>
      <point x="498" y="639" type="line"/>
      <point x="476" y="660"/>
      <point x="424" y="680"/>
      <point x="367" y="680" type="curve" smooth="yes"/>
    </contour>
    <contour>
      <point x="50" y="390" type="line"/>
      <point x="50" y="260" type="line"/>
      <point x="438" y="260" type="line"/>
      <point x="438" y="390" type="line"/>
    </contour>
  </outline>
</glyph>
<glyph name="currency" format="1">
  <advance width="516"/>
  <unicode hex="00A4"/>
  <outline>
    <contour>
      <point x="161" y="441"/>
      <point x="67" y="364"/>
      <point x="67" y="257" type="curve" smooth="yes"/>
      <point x="67" y="150"/>
      <point x="161" y="73"/>
      <point x="258" y="73" type="curve" smooth="yes"/>
      <point x="355" y="73"/>
      <point x="449" y="150"/>
      <point x="449" y="257" type="curve" smooth="yes"/>
      <point x="449" y="364"/>
      <point x="355" y="441"/>
      <point x="258" y="441" type="curve" smooth="yes"/>
    </contour>
    <contour>
      <point x="293" y="319"/>
      <point x="323" y="296"/>
      <point x="323" y="257" type="curve" smooth="yes"/>
      <point x="323" y="218"/>
      <point x="293" y="195"/>
      <point x="258" y="195" type="curve" smooth="yes"/>
      <point x="223" y="195"/>
      <point x="193" y="218"/>
      <point x="193" y="257" type="curve" smooth="yes"/>
      <point x="193" y="296"/>
      <point x="223" y="319"/>
      <point x="258" y="319" type="curve" smooth="yes"/>
    </contour>
    <contour>
      <point x="293" y="139" type="line"/>
      <point x="403" y="29" type="line"/>
      <point x="486" y="108" type="line"/>
      <point x="383" y="215" type="line"/>
    </contour>
    <contour>
      <point x="237" y="361" type="line"/>
      <point x="113" y="485" type="line"/>
      <point x="30" y="407" type="line"/>
      <point x="151" y="282" type="line"/>
    </contour>
    <contour>
      <point x="385" y="301" type="line"/>
      <point x="486" y="406" type="line"/>
      <point x="404" y="485" type="line"/>
      <point x="304" y="385" type="line"/>
    </contour>
    <contour>
      <point x="152" y="233" type="line"/>
      <point x="30" y="108" type="line"/>
      <point x="113" y="29" type="line"/>
      <point x="230" y="146" type="line"/>
    </contour>
  </outline>
</glyph>
<glyph name="degree" format="1">
  <advance width="403"/>
  <unicode hex="00B0"/>
  <outline>
    <contour>
      <point x="102" y="685"/>
      <point x="30" y="606"/>
      <point x="30" y="513" type="curve" smooth="yes"/>
      <point x="30" y="418"/>
      <point x="102" y="340"/>
      <point x="202" y="340" type="curve" smooth="yes"/>
      <point x="302" y="340"/>
      <point x="373" y="418"/>
      <point x="373" y="513" type="curve" smooth="yes"/>
      <point x="373" y="606"/>
      <point x="302" y="685"/>
      <point x="202" y="685" type="curve" smooth="yes"/>
    </contour>
    <contour>
      <point x="230" y="565"/>
      <point x="253" y="540"/>
      <point x="253" y="513" type="curve" smooth="yes"/>
      <point x="253" y="483"/>
      <point x="230" y="459"/>
      <point x="202" y="459" type="curve" smooth="yes"/>
      <point x="173" y="459"/>
      <point x="150" y="483"/>
      <point x="150" y="513" type="curve" smooth="yes"/>
      <point x="150" y="540"/>
      <point x="173" y="565"/>
      <point x="202" y="565" type="curve" smooth="yes"/>
    </contour>
  </outline>
</glyph>
<glyph name="Thorn" format="1">
  <advance width="664"/>
  <unicode hex="00DE"/>
  <outline>
    <contour>
      <point x="70" y="670" type="line"/>
      <point x="70" y="0" type="line"/>
      <point x="227" y="0" type="line"/>
      <point x="227" y="123" type="line"/>
      <point x="273" y="110"/>
      <point x="318" y="99"/>
      <point x="377" y="99" type="curve" smooth="yes"/>
      <point x="519" y="99"/>
      <point x="634" y="192"/>
      <point x="634" y="333" type="curve" smooth="yes"/>
      <point x="634" y="463"/>
      <point x="523" y="561"/>
      <point x="408" y="561" type="curve" smooth="yes"/>
      <point x="227" y="561" type="line"/>
      <point x="227" y="670" type="line"/>
    </contour>
    <contour>
      <point x="417" y="411"/>
      <point x="472" y="386"/>
      <point x="472" y="333" type="curve" smooth="yes"/>
      <point x="472" y="273"/>
      <point x="432" y="244"/>
      <point x="363" y="244" type="curve" smooth="yes"/>
      <point x="327" y="244"/>
      <point x="266" y="254"/>
      <point x="227" y="274" type="curve"/>
      <point x="227" y="411" type="line"/>
      <point x="353" y="411" type="line" smooth="yes"/>
    </contour>
  </outline>
</glyph>
<glyph name="eth" format="1">
  <advance width="598"/>
  <unicode hex="00F0"/>
  <outline>
    <contour>
      <point x="228" y="635" type="line"/>
      <point x="280" y="598"/>
      <point x="382" y="515"/>
      <point x="406" y="443" type="curve"/>
      <point x="371" y="479"/>
      <point x="326" y="500"/>
      <point x="289" y="500" type="curve" smooth="yes"/>
      <point x="157" y="500"/>
      <point x="30" y="409"/>
      <point x="30" y="252" type="curve" smooth="yes"/>
      <point x="30" y="95"/>
      <point x="157" y="-15"/>
      <point x="299" y="-15" type="curve" smooth="yes"/>
      <point x="441" y="-15"/>
      <point x="568" y="92"/>
      <point x="568" y="292" type="curve" smooth="yes"/>
      <point x="568" y="475"/>
      <point x="468" y="610"/>
      <point x="318" y="726" type="curve"/>
    </contour>
    <contour>
      <point x="366" y="375"/>
      <point x="423" y="329"/>
      <point x="423" y="252" type="curve" smooth="yes"/>
      <point x="423" y="175"/>
      <point x="366" y="130"/>
      <point x="299" y="130" type="curve" smooth="yes"/>
      <point x="232" y="130"/>
      <point x="175" y="175"/>
      <point x="175" y="252" type="curve" smooth="yes"/>
      <point x="175" y="329"/>
      <point x="232" y="375"/>
      <point x="299" y="375" type="curve" smooth="yes"/>
    </contour>
    <contour>
      <point x="233" y="571" type="line"/>
      <point x="277" y="506" type="line"/>
      <point x="516" y="638" type="line"/>
      <point x="472" y="708" type="line"/>
    </contour>
  </outline>
</glyph>
<glyph name="Eng" format="1">
  <advance width="742"/>
  <unicode hex="014A"/>
  <outline>
    <contour>
      <point x="614" y="224" type="line"/>
      <point x="136" y="680" type="line"/>
      <point x="70" y="680" type="line"/>
      <point x="70" y="0" type="line"/>
      <point x="257" y="0" type="line"/>
      <point x="257" y="329" type="line"/>
      <point x="551" y="51" type="line"/>
    </contour>
    <component base="J" xOffset="378"/>
    <contour>
      <point x="376" y="670" type="move" name="top"/>
    </contour>
    <contour>
      <point x="376" y="0" type="move" name="bottom"/>
    </contour>
  </outline>
</glyph>
<glyph name="eng" format="1">
  <advance width="623"/>
  <unicode hex="014B"/>
  <outline>
    <contour>
      <point x="386" y="184" type="line"/>
      <point x="386" y="11" type="line" smooth="yes"/>
      <point x="386" y="-48"/>
      <point x="346" y="-85"/>
      <point x="294" y="-108" type="curve"/>
      <point x="369" y="-255" type="line"/>
      <point x="494" y="-215"/>
      <point x="558" y="-130"/>
      <point x="558" y="-41" type="curve" smooth="yes"/>
      <point x="558" y="184" type="line"/>
    </contour>
    <component base="n"/>
  </outline>
</glyph>
<glyph name="idotless" format="1">
  <advance width="359"/>
  <outline>
    <contour>
      <point x="122" y="510" type="line"/>
      <point x="122" y="0" type="line"/>
      <point x="294" y="0" type="line"/>
      <point x="294" y="510" type="line"/>
    </contour>
    <contour>
      <point x="45" y="510" type="line"/>
      <point x="45" y="370" type="line"/>
      <point x="294" y="370" type="line"/>
      <point x="294" y="510" type="line"/>
    </contour>
    <contour>
      <point x="295" y="0" type="move" name="ogonek"/>
    </contour>
    <contour>
      <point x="182" y="510" type="move" name="top"/>
    </contour>
  </outline>
</glyph>
